<svg xmlns="http://www.w3.org/2000/svg"
    height="25"
    width="25"
    viewBox="0 0 134 133">

  <g transform="translate(-648.000000, -889.000000)">
    <path
        fill="#E1E1E1"
        d="M 714.7 889 C 751.426935864 889 781.2 918.773064136 781.2 955.5 C 781.2 992.226935864 751.426935864 1022 714.7 1022 C 677.973064136 1022 648.2 992.226935864 648.2 955.5 C 648.2 918.773064136 677.973064136 889 714.7 889 Z"
        stroke-width="1"/>
    <g transform="translate(685.000000, 902.000000)">
      <path
          fill="#05294B"
          d="M22.5,107 C26.0898509,107 29,104.313708 29,101 C29,97.6862915 26.0898509,95 22.5,95 C18.9101491,95 16,97.6862915 16,101 C16,104.313708 18.9101491,107 22.5,107 Z"
          stroke="#05294B"
          stroke-width="1"/>
      <path
          fill="#05294B"
          d="M2.55019543,14.9528411 C0.0796945689,21.2195146 6.63601974,23.4642876 8.25134775,23.0901595 C9.86667576,22.7160314 18.1333552,6.72198735 33.0513646,10.182689 C47.9693741,13.6433906 51.1050167,22.3418989 49.0145911,31.2274779 C46.9241656,40.113057 30.3908238,43.8543513 22.2191752,52.5528683 C14.0475266,61.2513811 13.8574821,77.3389474 16.5180229,83.1379616 C19.1785548,88.9369671 25.829902,90.0593558 26.2099818,83.699156 C26.5900617,77.3389474 23.6444633,65.086215 33.3364222,56.7618261 C43.0283812,48.4374372 57.281262,39.5518623 59.5617229,30.1050892 C61.8421838,20.6583158 55.3808809,6.34786375 36.472056,1.20357902 C17.5632311,-3.94070348 5.020696,8.68616765 2.55019543,14.9528411 Z"
          stroke-width="1"/>
      <path
          fill="#E1E1E1"
          d="M0.550195469,15.9528422 C-1.92030557,22.2195159 4.63602008,24.464289 6.25134821,24.0901609 C7.86667634,23.7160328 16.1333521,7.72198803 31.0513626,11.1826898 C45.9693732,14.6433916 49.105016,23.3419002 47.0145903,32.2274797 C44.9241646,41.1130591 28.3908217,44.8543536 20.2191724,53.5528667 C12.0475232,62.2513799 11.8574833,78.3389556 14.5180197,84.1379614 C17.1785561,89.9369671 23.8298995,91.0593559 24.2099793,84.6991558 C24.5900592,78.3389556 21.6444606,66.086214 31.3364203,57.7618247 C41.0283799,49.4374397 55.2812618,40.5518647 57.5617229,31.1050909 C59.842184,21.658317 53.3808806,7.34786441 34.4720543,2.20357945 C15.563228,-2.94070439 3.02069651,9.68616841 0.550195469,15.9528422 Z"
          stroke="#05294B"
          stroke-width="5"/>
      <path
          fill="#E1E1E1"
          d="M20.5,108 C24.0898509,108 27,105.313708 27,102 C27,98.6862915 24.0898509,96 20.5,96 C16.9101491,96 14,98.6862915 14,102 C14,105.313708 16.9101491,108 20.5,108 Z"
          stroke="#05294B"
          stroke-width="5"/>
    </g>
  </g>
</svg>