<svg xmlns="http://www.w3.org/2000/svg"
width="323"
height="568"
viewBox="0 0 323 568">

    <path
	fill="none"
        d="M464-722.7h81.1v81.1H464V-722.7z" />
    <path
        fill="#B2B2B3"
        fill-opacity="0.6"
        stroke-opacity="0.6"
        stroke-width="1"
        d="M266.9,568.2H72.2c-58,0-72-50.4-72-72V57.1C0.2,26.1,25.3,1,56.3,1h210.6c31,0,56.1,25.1,56.1,56.1v455.1
C323,543.1,297.9,568.2,266.9,568.2z" />
    <path
        fill="#F2F2F2"
        fill-opacity="0.6"
        stroke-opacity="0.6"
        stroke-width="1"
        d="M 0.2 70.1 H 323 V 473.5 H 0.2 V 70.1 Z" />
    <path
        fill="#E2E2E2"
        fill-opacity="0.6"
        stroke-opacity="0.6"
        stroke-width="1"
        d="M 323 110.7 L 323 298.6 L 101.4 70.1 L 286.8 70.1 Z" />
    <path
        fill="#ECECEC"
        fill-opacity="0.6"
        stroke-opacity="0.6"
        stroke-width="1"
        d="M 0.2 70.1 L 81.8 70.1 L 323 314.3 L 323 398.9 Z" />
    <path
        fill="#ECECEC"
        fill-opacity="0.6"
        stroke-opacity="0.6"
        stroke-width="1"
        d="M 161.6 494.2 C 176.069860446 494.2 187.8 506.288311755 187.8 521.2 C 187.8 536.111688245 176.069860446 548.2 161.6 548.2 C 147.130139554 548.2 135.4 536.111688245 135.4 521.2 C 135.4 506.288311755 147.130139554 494.2 161.6 494.2 Z" />
    <path
        fill="#BDBDBD"
        fill-opacity="0.6"
        stroke-opacity="0.6"
        stroke-width="1"
        d="M195.3,304.8v102.1h-30.8v-93.1C174.2,314.3,184.8,312,195.3,304.8z" />
    <path
        fill="#D5D5D5"
        fill-opacity="0.6"
        stroke-opacity="0.6"
        stroke-width="1"
        d="M164.5,313.8v93.1h-29V304.5C143.3,309,153.4,313.2,164.5,313.8z" />
    <path
        fill="#929497"
        fill-opacity="0.8"
        stroke="#BFBFBF"
        stroke-opacity="0.8"
        stroke-width="1.4691"
        stroke-miterlimit="10"
        d="M165.3,104.1c-0.1,21.3-0.3,47.3-0.5,67.8c-22.3-0.2-50.4,0.8-86.3,3.9C82.8,135.8,120,104.4,165.3,104.1
z" />
    <path
        fill="#6D6E70"
        fill-opacity="0.6"
        stroke-opacity="0.6"
        stroke-width="1"
        d="M255.2,186c-13.6-2.9-33.3-11.4-90.7-12v-69.9h0.5C214.8,104.1,255.2,140.8,255.2,186z" />
    <path
        fill="#BDBDBD"
        fill-opacity="0.6"
        stroke-opacity="0.6"
        stroke-width="1"
        d="M255.2,200.4c0,7.5-4.9,13.7-10.9,13.7c-1.2,0-2.4-0.3-3.6-0.8c-4.7,17.2-13.7,38.4-25.7,56.1
c-5.5,8.2-11.6,15.6-18.2,21.5c-0.5,0.5-1.1,1-1.6,1.4c-9.4,8.1-19.6,13.1-30.4,13.1h-0.4v-71.4c0,0-8.4-2.4-10.4-6.3
c-2-3.9,8.8-12.7,9.3-20.9c0.1-2.5,0.3-16.5,0.4-34.9c0.2,0,0.5,0,0.7,0c50.5,0.6,67.9,8.8,79.9,11.6c0,1.1,0,2.1-0.1,3.2h0.1
c1.6,0,3.2,0.5,4.6,1.3C252.7,190.2,255.2,194.9,255.2,200.4z" />
    <path
        fill="#D5D5D5"
        fill-opacity="0.6"
        stroke-opacity="0.6"
        stroke-width="1"
        d="M164.5,234.1v71.4c-10.2-0.1-20-4.8-29-12.3c-0.6-0.5-1.1-1-1.7-1.5c-6.7-5.9-12.9-13.3-18.5-21.5
c-12.1-17.7-21.3-38.9-26.1-56.3c-0.3,0-0.6,0-0.9,0c-6,0-10.9-6.1-10.9-13.7c0-1.9,0.3-3.7,0.9-5.4c1.3-3.8,4-6.7,7.2-7.8
c-0.1-1.2-0.1-2.4-0.1-3.6c0-2.6,0.1-5.2,0.4-7.8c32.4-3,57.8-4,78-3.9c-0.2,18.4-0.3,32.5-0.4,34.9
c-0.4,8.2-11.2,17-9.3,20.9C156.1,231.7,164.5,234.1,164.5,234.1z" />
    <path
        fill="#6D6E70"
        fill-opacity="0.8"
        stroke-opacity="0.8"
        stroke-width="1"
        d="M248.3,320.5c-4,1.6-26,2.1-53,1.8v-29.8c0.6-0.5,1.1-1,1.6-1.4c6.6-6,12.7-13.4,18.2-21.5
c11.9-17.7,21-38.9,25.7-56.1c1.1,0.5,2.3,0.8,3.6,0.8c6,0,10.9-6.1,10.9-13.7c0-5.5-2.5-10.2-6.2-12.4
c-1.4-0.8-3-1.3-4.6-1.3h-0.1c0-1.1,0.1-2.1,0.1-3.2c0-43.9-35.6-79.4-79.4-79.4h-0.4V91.4c53.4,0,96.6,43.1,96.6,96.2
C261.2,192.4,259.1,316.1,248.3,320.5z" />
    <path
        fill="#929497"
        fill-opacity="0.6"
        stroke-opacity="0.6"
        stroke-width="1"
        d="M85.9,175.8c-0.3,2.6-0.4,5.2-0.4,7.8c0,1.2,0,2.4,0.1,3.6c-3.2,1.1-5.9,4-7.2,7.8
c-0.6,1.7-0.9,3.5-0.9,5.4c0,7.5,4.9,13.7,10.9,13.7c0.3,0,0.6,0,0.9,0c4.8,17.4,14,38.6,26.1,56.3
c5.6,8.2,11.8,15.6,18.5,21.5c0.6,0.5,1.1,1,1.7,1.5v27.3c-27.5-1.2-51.1-3-58-5c-18.8-5.4-9.6-120.1-9.6-120.1l0.3,0
c-0.2-2.6-0.3-5.2-0.3-7.9c0-53.1,43.2-96.1,96.5-96.2c0,4,0,8.3-0.1,12.8C123.3,104.4,89.8,135.8,85.9,175.8z" />
    <path
	fill="none"
        fill-opacity="0.6"
        stroke-opacity="0.6"
        stroke-width="1"
        d="M 164.5 413.9 L 164.5 406.9" />
    <path
        fill="#949494"
        fill-opacity="0.6"
        stroke-opacity="0.6"
        stroke-width="1"
        d="M195.3,292.4v12.4c-10.6,7.2-21.1,9.5-30.8,9c-11.1-0.6-21.2-4.8-29-9.3v-11.2c9,7.5,18.8,12.2,29,12.3
h0.4C175.7,305.5,186,300.5,195.3,292.4z" />
    <path
        fill="#6D6E70"
        fill-opacity="0.6"
        stroke-opacity="0.6"
        stroke-width="1"
        d="M 132.9 191 C 134.998682049 191 136.7 192.701317951 136.7 194.8 C 136.7 196.898682049 134.998682049 198.6 132.9 198.6 C 130.801317951 198.6 129.1 196.898682049 129.1 194.8 C 129.1 192.701317951 130.801317951 191 132.9 191 Z" />
    <path
        fill="#808184"
        fill-opacity="0.6"
        stroke-opacity="0.6"
        stroke-width="1"
        d="M 197.3 190.4 C 199.564367474 190.4 201.4 192.235632526 201.4 194.5 C 201.4 196.764367474 199.564367474 198.6 197.3 198.6 C 195.035632526 198.6 193.2 196.764367474 193.2 194.5 C 193.2 192.235632526 195.035632526 190.4 197.3 190.4 Z" />
    <path
        fill="#F2F2F2"
        fill-opacity="0.6"
        stroke-opacity="0.6"
        stroke-width="1"
        d="M 165.4 346.7 L 165.4 398.5 L 165.3 398.7 L 122 346.7 Z" />
    <path
        fill="#B3B3B3"
        fill-opacity="0.6"
        stroke-opacity="0.6"
        stroke-width="1"
        d="M 209.1 346.7 L 165.4 398.5 L 165.4 346.7 Z" />
    <path
        fill="#B3B3B3"
        fill-opacity="0.6"
        stroke-opacity="0.6"
        stroke-width="1"
        d="M165.4,398.5v76.2H36c-7.7,0-17.1,0-17.1,0l25.3-105.9c0-7.7,37.9-22.1,45.6-22.1H122l43.3,52L165.4,398.5z" />
    <path
        fill="#7A7A7A"
        fill-opacity="0.6"
        stroke-opacity="0.6"
        stroke-width="1"
        d="M306,474.7c0,0-9.2,0-16.9,0H165.4v-76.2l43.6-51.8h32.2c7.7,0,40.2,15.9,40.2,23.5L306,474.7z" />
    <path
	fill="none"
        fill-opacity="0.6"
        stroke-opacity="0.6"
        stroke-width="1"
        d="M 165.4 496.2 L 165.4 474.7" />
    <path
	fill="none"
        fill-opacity="0.6"
        stroke-opacity="0.6"
        stroke-width="1"
        d="M 165.4 346.7 L 165.4 344.8" />
    <path
        fill="#F1F1F2"
        fill-opacity="0.6"
        stroke-opacity="0.6"
        stroke-width="1"
        d="M134.4,252.1h56.5c0,0-18.4,24.4-28.8,24.4S134.4,252.1,134.4,252.1z" />
    <path
        fill="#05294B"
        d="M147.3,101.9c-0.2,0-0.3,0-0.5,0c-1.7,0.3-3.5,0.6-5.2,0.9c-1.8,0.4-3,2.1-2.6,3.9c0.3,1.6,1.7,2.7,3.2,2.7
c0.2,0,0.4,0,0.7-0.1c0.8-0.2,1.7-0.3,2.5-0.5l0,0c0,0,0,0,0,0c0,0,0,0,0,0c0,0,0,0,0,0c0,0,0,0,0,0c0,0,0,0,0,0c0,0,0,0,0,0
c0,0,0,0,0,0c0,0,0,0,0,0c0,0,0,0,0,0c0,0,0,0,0,0c0,0,0,0,0,0c0,0,0,0,0,0c0,0,0,0,0,0c0,0,0,0,0,0c0,0,0,0,0,0c0,0,0,0,0,0
c0,0,0,0,0,0c0,0,0,0,0,0l0,0c0.7-0.1,1.3-0.2,2-0.3c0,0,0,0,0,0c0,0,0,0,0,0c0,0,0,0,0,0c0,0,0,0,0,0c0,0,0,0,0,0
c1.8-0.3,3.1-2,2.8-3.8C150.3,103,148.9,101.9,147.3,101.9L147.3,101.9z
M132.3,105.2c-0.3,0-0.6,0-1,0.1c-1.7,0.5-3.4,1.1-5,1.7
c-1.7,0.6-2.6,2.5-2,4.2c0.5,1.4,1.8,2.2,3.1,2.2c0.4,0,0.8-0.1,1.1-0.2c1.6-0.6,3.1-1.1,4.7-1.6c1.8-0.5,2.7-2.4,2.2-4.1
C135,106.2,133.7,105.2,132.3,105.2L132.3,105.2z
M117.9,110.8c-0.5,0-1,0.1-1.4,0.3c-1.6,0.8-3.2,1.6-4.7,2.4
c-1.6,0.9-2.2,2.9-1.3,4.5c0.6,1.1,1.7,1.7,2.9,1.7c0.5,0,1.1-0.1,1.6-0.4c0.3-0.2,0.6-0.3,0.8-0.4l0,0c0,0,0,0,0,0c0,0,0,0,0,0
c0,0,0,0,0,0c0,0,0,0,0,0c0,0,0,0,0,0c0,0,0,0,0,0c0,0,0,0,0,0c0,0,0,0,0,0c0,0,0,0,0,0c0,0,0,0,0,0c0,0,0,0,0,0c0,0,0,0,0,0
c0,0,0,0,0,0c0,0,0,0,0,0c0,0,0,0,0,0c0.7-0.4,1.5-0.8,2.2-1.1c0,0,0,0,0,0c0,0,0,0,0.1,0c0.4-0.2,0.7-0.3,1.1-0.5
c1.7-0.8,2.4-2.8,1.6-4.4C120.3,111.5,119.1,110.8,117.9,110.8L117.9,110.8z
M104.5,118.5c-0.6,0-1.3,0.2-1.9,0.6
c-1.5,1-2.9,2-4.3,3.1c-1.5,1.1-1.8,3.2-0.7,4.6c0.7,0.9,1.6,1.3,2.7,1.3c0.7,0,1.4-0.2,2-0.7c0.3-0.2,0.5-0.4,0.8-0.6l0,0
c0,0,0,0,0,0l0,0c0,0,0,0,0,0c0,0,0,0,0,0c0,0,0,0,0,0c0,0,0,0,0,0c0,0,0,0,0,0c0,0,0,0,0,0c0,0,0,0,0,0c0,0,0,0,0,0c0,0,0,0,0,0
c0,0,0,0,0,0c0,0,0,0,0,0c0,0,0,0,0,0c0,0,0,0,0,0c0,0,0,0,0,0c0,0,0,0,0,0c0,0,0,0,0,0c0,0,0,0,0,0c0,0,0,0,0,0c0,0,0,0,0,0
c0,0,0,0,0,0c0,0,0,0,0,0c0,0,0,0,0,0c0,0,0,0,0,0c0,0,0,0,0,0c0,0,0,0,0,0c0.8-0.6,1.7-1.2,2.5-1.8l0,0c0,0,0,0,0,0
c0.1-0.1,0.2-0.1,0.3-0.2c1.5-1,1.9-3.1,0.9-4.6C106.6,119,105.6,118.5,104.5,118.5L104.5,118.5z
M92.4,128.1
c-0.8,0-1.6,0.3-2.2,0.9c-1.3,1.2-2.6,2.4-3.8,3.7c-1.3,1.3-1.3,3.4,0,4.7c0.6,0.6,1.5,1,2.3,1c0.9,0,1.7-0.3,2.4-1
c0.1-0.1,0.3-0.3,0.4-0.4c0,0,0,0,0,0c0,0,0,0,0,0c0,0,0,0,0,0c0,0,0,0,0,0c0,0,0,0,0,0c0,0,0,0,0,0c0,0,0,0,0,0c0,0,0,0,0,0
c0,0,0,0,0,0c0,0,0,0,0,0c0,0,0,0,0,0c0,0,0,0,0,0c0,0,0,0,0,0c0,0,0,0,0,0c0,0,0,0,0,0l0,0c0,0,0,0,0,0l0,0c0,0,0,0,0,0l0,0
c0.9-0.9,1.9-1.9,2.9-2.8c1.3-1.2,1.4-3.3,0.2-4.7C94.2,128.4,93.3,128.1,92.4,128.1L92.4,128.1z
M81.9,139.3
c-1,0-1.9,0.4-2.6,1.2c-1.1,1.4-2.2,2.8-3.2,4.2c-1.1,1.5-0.8,3.6,0.7,4.6c0.6,0.4,1.3,0.6,2,0.6c1,0,2-0.5,2.7-1.4
c1-1.3,2-2.7,3-3.9c1.2-1.4,0.9-3.5-0.5-4.7C83.4,139.5,82.6,139.3,81.9,139.3L81.9,139.3z
M73.1,151.9c-1.1,0-2.2,0.6-2.9,1.6
c-0.9,1.5-1.8,3.1-2.6,4.6c-0.9,1.6-0.2,3.6,1.4,4.5c0.5,0.3,1,0.4,1.5,0.4c1.2,0,2.3-0.6,2.9-1.8c0.1-0.2,0.2-0.3,0.3-0.5
c0,0,0,0,0,0c0,0,0,0,0,0c0,0,0,0,0,0c0,0,0,0,0,0c0,0,0,0,0,0c0,0,0,0,0,0c0,0,0,0,0,0c0,0,0,0,0,0c0,0,0,0,0,0c0,0,0,0,0,0
c0,0,0,0,0,0c0,0,0,0,0,0c0,0,0,0,0,0c0,0,0,0,0,0c0,0,0,0,0,0c0,0,0,0,0,0c0,0,0,0,0,0c0,0,0,0,0,0c0,0,0,0,0,0c0,0,0,0,0,0
c0,0,0,0,0,0c0,0,0,0,0,0c0,0,0,0,0,0c0,0,0,0,0,0c0,0,0,0,0,0c0,0,0,0,0,0c0,0,0,0,0,0c0,0,0,0,0,0c0,0,0,0,0,0l0,0
c0,0,0-0.1,0.1-0.1c0,0,0,0,0,0c0.1-0.3,0.3-0.5,0.4-0.8c0,0,0,0,0,0c0,0,0,0,0,0c0,0,0,0,0,0c0,0,0,0,0,0c0,0,0,0,0,0
c0,0,0,0,0,0c0,0,0,0,0,0c0,0,0,0,0,0c0,0,0,0,0,0c0,0,0,0,0,0c0,0,0,0,0,0c0,0,0,0,0,0c0,0,0,0,0,0c0,0,0,0,0,0c0,0,0,0,0,0
c0,0,0,0,0,0c0,0,0,0,0,0c0,0,0,0,0,0c0,0,0,0,0,0c0,0,0,0,0,0c0,0,0,0,0,0c0,0,0,0,0,0c0,0,0,0,0,0c0,0,0,0,0,0c0,0,0,0,0,0
c0,0,0,0,0,0c0,0,0,0,0,0c0,0,0,0,0,0c0,0,0,0,0,0c0,0,0,0,0,0c0,0,0,0,0,0c0,0,0,0,0,0c0,0,0,0,0,0l0,0c0,0,0,0,0,0c0,0,0,0,0,0
c0,0,0,0,0,0l0,0c0,0,0,0,0,0l0,0c0,0,0,0,0,0l0,0c0,0,0,0,0,0l0,0c0.2-0.3,0.4-0.7,0.6-1l0,0c0,0,0,0,0,0l0,0c0,0,0,0,0,0l0,0
c0,0,0,0,0,0l0,0c0,0,0,0,0,0c0,0,0,0,0,0c0,0,0,0,0,0c0,0,0,0,0,0c0,0,0,0,0,0c0,0,0,0,0,0c0,0,0,0,0,0c0,0,0,0,0,0c0,0,0,0,0,0
c0,0,0,0,0,0c0,0,0,0,0,0c0,0,0,0,0,0c0,0,0,0,0,0c0,0,0,0,0,0c0,0,0,0,0,0c0,0,0,0,0,0c0,0,0,0,0,0c0,0,0,0,0,0c0,0,0,0,0,0
c0.1-0.1,0.1-0.2,0.2-0.3c0.9-1.6,0.4-3.6-1.2-4.5C74.3,152.1,73.7,151.9,73.1,151.9L73.1,151.9z
M66.3,165.8
c-1.3,0-2.6,0.8-3.1,2.1c-0.7,1.6-1.3,3.3-1.9,5c-0.6,1.7,0.3,3.6,2,4.2c0.4,0.1,0.7,0.2,1.1,0.2c1.4,0,2.7-0.9,3.1-2.2
c0-0.1,0.1-0.2,0.1-0.3l0,0c0,0,0,0,0,0l0,0c0,0,0,0,0,0l0,0c0,0,0,0,0,0c0,0,0,0,0,0c0,0,0,0,0,0c0,0,0,0,0,0c0,0,0,0,0,0
c0,0,0,0,0,0c0,0,0,0,0,0c0,0,0,0,0,0c0,0,0,0,0,0c0,0,0,0,0,0c0,0,0,0,0,0c0,0,0,0,0,0s0,0,0,0c0,0,0,0,0,0c0,0,0,0,0,0
c0,0,0,0,0,0c0,0,0,0,0,0c0,0,0,0,0,0c0,0,0,0,0,0c0,0,0,0,0,0c0,0,0,0,0,0c0.4-1.2,0.9-2.5,1.4-3.7c0-0.1,0.1-0.1,0.1-0.2
c0.7-1.7-0.1-3.6-1.8-4.3C67.1,165.8,66.7,165.8,66.3,165.8L66.3,165.8z
M61.6,180.4c-1.5,0-2.9,1-3.2,2.5
c-0.4,1.7-0.8,3.5-1.1,5.2c-0.3,1.8,0.9,3.5,2.7,3.9c0.2,0,0.4,0.1,0.6,0.1c1.6,0,3-1.1,3.3-2.7c0.2-1.2,0.5-2.3,0.7-3.5
c0,0,0,0,0,0c0,0,0,0,0,0c0,0,0,0,0,0c0,0,0,0,0,0c0,0,0,0,0,0c0,0,0,0,0,0c0,0,0,0,0,0c0,0,0,0,0,0c0,0,0,0,0,0c0,0,0,0,0,0
c0,0,0,0,0,0c0,0,0,0,0,0c0,0,0,0,0,0l0,0c0,0,0,0,0,0l0,0c0.1-0.4,0.2-0.7,0.3-1.1c0.4-1.8-0.7-3.6-2.5-4
C62.1,180.5,61.9,180.4,61.6,180.4L61.6,180.4z
M59.2,195.7c-1.7,0-3.2,1.3-3.3,3c-0.1,1.8-0.3,3.5-0.3,5.3
c-0.1,1.8,1.4,3.4,3.2,3.4c0,0,0.1,0,0.1,0c1.8,0,3.2-1.4,3.3-3.2c0-0.8,0.1-1.6,0.1-2.5l0,0c0,0,0,0,0,0c0,0,0,0,0,0c0,0,0,0,0,0
c0,0,0,0,0,0c0,0,0,0,0,0c0,0,0,0,0,0s0,0,0,0c0,0,0,0,0,0c0,0,0,0,0,0c0,0,0,0,0,0c0,0,0,0,0,0c0,0,0,0,0,0c0,0,0,0,0,0
c0,0,0,0,0,0l0,0c0,0,0,0,0,0l0,0c0-0.7,0.1-1.5,0.2-2.2c0.2-1.8-1.2-3.4-3-3.6C59.4,195.7,59.3,195.7,59.2,195.7L59.2,195.7z
M59,211.1c-0.1,0-0.1,0-0.2,0c-1.8,0.1-3.2,1.7-3.1,3.5c0.1,1.8,0.3,3.5,0.5,5.3c0.2,1.7,1.6,3,3.3,3c0.1,0,0.2,0,0.4,0
c1.8-0.2,3.1-1.8,2.9-3.7c-0.2-1.6-0.3-3.3-0.4-5C62.2,212.4,60.7,211.1,59,211.1L59,211.1z
M61.1,226.3c-0.2,0-0.5,0-0.7,0.1
c-1.8,0.4-2.9,2.1-2.6,3.9c0.4,1.7,0.8,3.5,1.2,5.2c0.4,1.5,1.7,2.5,3.2,2.5c0.3,0,0.6,0,0.9-0.1c1.8-0.5,2.8-2.3,2.4-4.1
c-0.2-0.8-0.4-1.5-0.6-2.3c0,0,0,0,0,0c0,0,0,0,0,0c0,0,0,0,0,0c0,0,0,0,0,0c0,0,0,0,0,0c0,0,0,0,0,0c0,0,0,0,0,0c0,0,0,0,0,0
c0,0,0,0,0,0c0,0,0,0,0,0c0,0,0,0,0,0c0,0,0,0,0,0c0,0,0,0,0,0c0,0,0,0,0,0c0,0,0,0,0,0l0,0c0,0,0,0,0,0l0,0
c-0.2-0.7-0.3-1.5-0.5-2.3C64,227.4,62.6,226.3,61.1,226.3L61.1,226.3z
M65.4,241.1c-0.4,0-0.8,0.1-1.2,0.2
c-1.7,0.6-2.6,2.6-1.9,4.3c0.6,1.6,1.3,3.3,2,4.9c0.5,1.3,1.8,2,3,2c0.4,0,0.9-0.1,1.3-0.3c1.7-0.7,2.5-2.7,1.7-4.4
c-0.2-0.4-0.3-0.8-0.5-1.1c0,0,0,0,0,0c-0.5-1.1-0.9-2.3-1.4-3.5C68,241.9,66.7,241.1,65.4,241.1L65.4,241.1z
M71.9,255.1
c-0.5,0-1.1,0.1-1.6,0.4c-1.6,0.9-2.2,2.9-1.3,4.5c0.9,1.5,1.8,3.1,2.7,4.6c0.6,1,1.7,1.6,2.8,1.6c0.6,0,1.2-0.2,1.8-0.5
c1.6-1,2-3,1.1-4.6c0,0-0.1-0.1-0.1-0.1l0,0c0,0,0,0,0,0l0,0c0,0,0,0,0,0c0,0,0,0,0,0c0,0,0,0,0,0c0,0,0,0,0,0c0,0,0,0,0,0
c0,0,0,0,0,0c0,0,0,0,0,0c0,0,0,0,0,0c0,0,0,0,0,0c0,0,0,0,0,0c0,0,0,0,0,0c0,0,0,0,0,0c0,0,0,0,0,0c-0.8-1.3-1.6-2.6-2.3-3.9
C74.2,255.7,73,255.1,71.9,255.1L71.9,255.1z
M80.4,268c-0.7,0-1.4,0.2-2,0.7c-1.5,1.1-1.7,3.2-0.6,4.7c1.1,1.4,2.2,2.8,3.3,4.1
c0.7,0.8,1.6,1.2,2.5,1.2c0.8,0,1.5-0.3,2.2-0.8c1.4-1.2,1.6-3.3,0.4-4.7c-1.1-1.3-2.1-2.5-3.1-3.9C82.3,268.4,81.4,268,80.4,268
L80.4,268z
M90.7,279.4c-0.9,0-1.7,0.3-2.4,1c-1.3,1.3-1.2,3.4,0.1,4.7c1.3,1.2,2.6,2.4,3.9,3.6c0.6,0.5,1.4,0.8,2.2,0.8
c0.9,0,1.8-0.4,2.5-1.1c1.2-1.4,1.1-3.5-0.3-4.7c0,0,0,0,0,0c0,0,0,0,0,0c0,0,0,0,0,0c0,0,0,0,0,0c0,0,0,0,0,0c0,0,0,0,0,0
c0,0,0,0,0,0c0,0,0,0,0,0c0,0,0,0,0,0c0,0,0,0,0,0c0,0,0,0,0,0c0,0,0,0,0,0l0,0c-0.6-0.6-1.3-1.1-1.9-1.7c0,0,0,0,0,0c0,0,0,0,0,0
c0,0,0,0,0,0c0,0,0,0,0,0c0,0,0,0,0,0c0,0,0,0,0,0c0,0,0,0,0,0c0,0,0,0,0,0c0,0,0,0,0,0c0,0,0,0,0,0c0,0,0,0,0,0c0,0,0,0,0,0
c0,0,0,0,0,0c0,0,0,0,0,0c0,0,0,0,0,0c0,0,0,0,0,0c0,0,0,0,0,0c0,0,0,0,0,0c0,0,0,0,0,0c0,0,0,0,0,0c0,0,0,0,0,0c0,0,0,0,0,0
c0,0,0,0,0,0c0,0,0,0,0,0c0,0,0,0,0,0c0,0,0,0,0,0c0,0,0,0,0,0c0,0,0,0,0,0c0,0,0,0,0,0c0,0,0,0,0,0c0,0,0,0,0,0c0,0,0,0,0,0
c0,0,0,0,0,0c0,0,0,0,0,0c-0.1-0.1-0.3-0.2-0.4-0.4l0,0c0,0,0,0,0,0l0,0c0,0,0,0,0,0l0,0c-0.1-0.1-0.1-0.1-0.2-0.2l0,0
c-0.2-0.2-0.4-0.3-0.5-0.5C92.3,279.7,91.5,279.4,90.7,279.4L90.7,279.4z
M102.5,289.3c-1,0-2.1,0.5-2.7,1.4
c-1.1,1.5-0.7,3.6,0.8,4.6c1.4,1,2.9,2,4.4,3c0.6,0.4,1.2,0.5,1.8,0.5c1.1,0,2.2-0.5,2.8-1.5c1-1.5,0.5-3.6-1-4.6
c-1.3-0.9-2.6-1.7-3.9-2.6l0,0c0,0,0,0,0,0c0,0,0,0,0,0c0,0,0,0,0,0c0,0,0,0,0,0c0,0,0,0,0,0c0,0,0,0,0,0c0,0,0,0,0,0c0,0,0,0,0,0
c0,0,0,0,0,0c0,0,0,0,0,0c0,0,0,0,0,0c0,0,0,0,0,0C103.8,289.5,103.2,289.3,102.5,289.3L102.5,289.3z
M115.7,297.2
c-1.2,0-2.4,0.7-3,1.8c-0.8,1.6-0.2,3.6,1.5,4.5c1.6,0.8,3.2,1.6,4.8,2.3c0.4,0.2,0.9,0.3,1.4,0.3c1.3,0,2.5-0.7,3-2
c0.7-1.7,0-3.6-1.7-4.4c-1.5-0.7-3-1.4-4.5-2.1C116.7,297.4,116.2,297.2,115.7,297.2L115.7,297.2z
M129.9,303.2
c-1.4,0-2.7,0.9-3.1,2.3c-0.6,1.7,0.4,3.6,2.1,4.2c1.7,0.6,3.4,1.1,5.1,1.5c0.3,0.1,0.6,0.1,0.9,0.1c1.5,0,2.8-1,3.2-2.4
c0.5-1.8-0.5-3.6-2.3-4.1c-0.3-0.1-0.5-0.1-0.8-0.2c0,0,0,0,0,0c0,0,0,0,0,0c0,0,0,0,0,0c0,0,0,0,0,0c-1.3-0.4-2.6-0.8-3.9-1.2
C130.6,303.2,130.3,303.2,129.9,303.2L129.9,303.2z
M144.9,306.9c-1.6,0-3,1.1-3.3,2.8c-0.3,1.8,0.9,3.5,2.7,3.8
c1.7,0.3,3.5,0.6,5.2,0.8c0.1,0,0.3,0,0.4,0c1.7,0,3.1-1.2,3.3-2.9c0.2-1.8-1.1-3.5-2.9-3.7c-0.5-0.1-0.9-0.1-1.4-0.2l0,0
c0,0,0,0,0,0l0,0c0,0,0,0,0,0l0,0c0,0,0,0,0,0l0,0c0,0,0,0,0,0l0,0c0,0,0,0,0,0c0,0,0,0,0,0c0,0,0,0,0,0c0,0,0,0,0,0c0,0,0,0,0,0
c0,0,0,0,0,0c0,0,0,0,0,0c0,0,0,0,0,0c0,0,0,0,0,0c0,0,0,0,0,0c0,0,0,0,0,0c0,0,0,0,0,0c0,0,0,0,0,0c0,0,0,0,0,0c0,0,0,0,0,0
c0,0,0,0,0,0c0,0,0,0,0,0c0,0,0,0,0,0c0,0,0,0,0,0c0,0,0,0,0,0c0,0,0,0,0,0c0,0,0,0,0,0c0,0,0,0,0,0c0,0,0,0,0,0c0,0,0,0,0,0
c-0.5-0.1-0.9-0.1-1.4-0.2c0,0,0,0,0,0c0,0,0,0,0,0c0,0,0,0,0,0c0,0,0,0,0,0c0,0,0,0,0,0c0,0,0,0,0,0c0,0,0,0,0,0c0,0,0,0,0,0
c0,0,0,0,0,0c0,0,0,0,0,0c0,0,0,0,0,0c0,0,0,0,0,0c0,0,0,0,0,0c0,0,0,0,0,0c0,0,0,0,0,0c0,0,0,0,0,0c0,0,0,0,0,0c0,0,0,0,0,0
c0,0,0,0,0,0c0,0,0,0,0,0c0,0,0,0,0,0c0,0,0,0,0,0c0,0,0,0,0,0l0,0c0,0,0,0,0,0l0,0c-0.4-0.1-0.7-0.1-1-0.2
C145.2,306.9,145,306.9,144.9,306.9L144.9,306.9z
M165.3,308.4C165.3,308.4,165.3,308.4,165.3,308.4c-0.4,0-0.8,0-1.1,0h0
c0,0,0,0,0,0h0c0,0,0,0,0,0h0c0,0,0,0,0,0c0,0,0,0,0,0c0,0,0,0,0,0c0,0,0,0,0,0c0,0,0,0,0,0c0,0,0,0,0,0c0,0,0,0,0,0c0,0,0,0,0,0
c0,0,0,0,0,0c0,0,0,0,0,0c0,0,0,0,0,0c0,0,0,0,0,0c0,0,0,0,0,0c0,0,0,0,0,0c0,0,0,0,0,0c0,0,0,0,0,0c0,0,0,0,0,0c0,0,0,0,0,0
c0,0,0,0,0,0c0,0,0,0,0,0c0,0,0,0,0,0c0,0,0,0,0,0c0,0,0,0,0,0c0,0,0,0,0,0c0,0,0,0,0,0c0,0,0,0,0,0c0,0,0,0,0,0c0,0,0,0,0,0
c0,0,0,0,0,0c0,0,0,0,0,0c0,0,0,0,0,0c0,0,0,0,0,0c0,0,0,0,0,0c0,0,0,0,0,0c0,0,0,0,0,0c0,0-0.1,0-0.1,0h0c0,0-0.1,0-0.1,0
c0,0,0,0,0,0c0,0-0.1,0-0.1,0c0,0,0,0,0,0c0,0,0,0,0,0c0,0,0,0,0,0c0,0,0,0-0.1,0c0,0,0,0,0,0c0,0,0,0,0,0c0,0,0,0,0,0
c0,0,0,0,0,0c0,0,0,0,0,0c0,0,0,0,0,0c0,0,0,0,0,0c0,0,0,0,0,0c0,0,0,0,0,0c0,0,0,0,0,0c0,0,0,0,0,0c0,0,0,0,0,0c0,0,0,0,0,0
c0,0-0.1,0-0.1,0l0,0c0,0,0,0,0,0c0,0,0,0,0,0c0,0,0,0,0,0c0,0,0,0,0,0c0,0,0,0,0,0c0,0,0,0,0,0c0,0,0,0,0,0c0,0,0,0,0,0
c0,0,0,0,0,0c0,0,0,0,0,0c0,0,0,0,0,0c0,0,0,0,0,0c0,0,0,0,0,0c0,0,0,0,0,0c0,0,0,0,0,0c0,0,0,0,0,0c0,0,0,0,0,0c0,0,0,0,0,0
c0,0,0,0,0,0h0c0,0-0.1,0-0.1,0h0c0,0,0,0,0,0h0c0,0,0,0,0,0h0c0,0,0,0,0,0h0c0,0,0,0,0,0h0c0,0,0,0,0,0h0c0,0,0,0,0,0l0,0
c-0.4,0-0.8,0-1.2,0h0c0,0,0,0,0,0l0,0c0,0,0,0,0,0h0c0,0,0,0,0,0l0,0c-0.1,0-0.1,0-0.2,0c0,0,0,0,0,0c0,0,0,0,0,0c0,0,0,0,0,0
c0,0,0,0,0,0c0,0,0,0,0,0c0,0,0,0,0,0s0,0,0,0c0,0,0,0,0,0c0,0,0,0,0,0c0,0,0,0,0,0c0,0-0.1,0-0.1,0c-1.8,0-3.3,1.4-3.3,3.2
c0,1.8,1.4,3.4,3.2,3.4c0.8,0,1.7,0,2.5,0c0.9,0,1.9,0,2.8,0c1.8,0,3.3-1.6,3.2-3.4C168.6,309.8,167.1,308.4,165.3,308.4
L165.3,308.4z
M180.7,306.9c-0.2,0-0.4,0-0.6,0c-1.6,0.3-3.3,0.5-4.9,0.7c-1.8,0.2-3.1,1.9-2.9,3.7c0.2,1.7,1.6,2.9,3.3,2.9
c0.1,0,0.3,0,0.4,0c1.7-0.2,3.5-0.5,5.2-0.8c1.8-0.3,3-2,2.7-3.8C183.6,308,182.2,306.9,180.7,306.9L180.7,306.9z
M195.6,303.1
c-0.3,0-0.7,0.1-1,0.2c-0.1,0-0.3,0.1-0.4,0.1l0,0c0,0,0,0,0,0c0,0,0,0,0,0c0,0,0,0,0,0c0,0,0,0,0,0c0,0,0,0,0,0c0,0,0,0,0,0
c0,0,0,0,0,0c0,0,0,0,0,0c0,0,0,0,0,0c0,0,0,0,0,0l0,0c0,0,0,0,0,0l0,0c-1.3,0.4-2.7,0.8-4.1,1.2c-1.8,0.5-2.8,2.3-2.3,4.1
c0.4,1.5,1.7,2.4,3.2,2.4c0.3,0,0.6,0,0.9-0.1c1.7-0.5,3.4-1,5.1-1.6c1.7-0.6,2.7-2.5,2.1-4.2C198.3,304,197,303.1,195.6,303.1
L195.6,303.1z
M209.8,297.1c-0.5,0-1,0.1-1.5,0.4c-1.5,0.8-3,1.5-4.5,2.2c-1.7,0.8-2.4,2.7-1.7,4.4c0.6,1.2,1.8,2,3,2
c0.5,0,0.9-0.1,1.4-0.3c1.6-0.7,3.2-1.5,4.8-2.3c1.6-0.8,2.3-2.8,1.4-4.5C212.2,297.8,211,297.1,209.8,297.1L209.8,297.1z
M223,289.1c-0.7,0-1.3,0.2-1.9,0.6c-1.3,1-2.7,1.9-4.1,2.8c-1.5,1-2,3-1,4.6c0.6,1,1.7,1.5,2.8,1.5c0.6,0,1.2-0.2,1.8-0.5
c1.5-1,3-2,4.4-3c1.5-1.1,1.8-3.1,0.8-4.6C225,289.6,224,289.1,223,289.1L223,289.1z
M234.8,279.3c-0.8,0-1.7,0.3-2.3,0.9
c-0.3,0.3-0.7,0.7-1,1l0,0c0,0,0,0-0.1,0.1c0,0,0,0,0,0c0,0,0,0,0,0c0,0,0,0,0,0c0,0,0,0,0,0c0,0,0,0,0,0c0,0,0,0,0,0
c-0.7,0.6-1.3,1.2-2,1.8c0,0,0,0,0,0c0,0,0,0,0,0l0,0c0,0,0,0,0,0c0,0,0,0,0,0c0,0,0,0,0,0c0,0,0,0,0,0c0,0,0,0,0,0c0,0,0,0,0,0
c0,0,0,0,0,0c0,0,0,0,0,0c0,0,0,0,0,0c0,0,0,0,0,0c0,0,0,0,0,0c0,0,0,0,0,0c0,0,0,0,0,0c0,0,0,0,0,0c0,0,0,0,0,0c0,0,0,0,0,0l0,0
c0,0,0,0,0,0l0,0c-0.1,0-0.1,0.1-0.2,0.1c-1.4,1.2-1.5,3.3-0.3,4.7c0.7,0.7,1.6,1.1,2.5,1.1c0.8,0,1.6-0.3,2.2-0.8
c1.3-1.2,2.6-2.4,3.9-3.6c1.3-1.3,1.4-3.4,0.1-4.7C236.5,279.6,235.7,279.3,234.8,279.3L234.8,279.3z
M245.1,267.8
c-1,0-2,0.4-2.6,1.3c-0.4,0.5-0.7,1-1.1,1.4l0,0c0,0,0,0,0,0l0,0c0,0,0,0,0,0c0,0,0,0,0,0c0,0,0,0,0,0c0,0,0,0,0,0c0,0,0,0,0,0
c0,0,0,0,0,0c0,0,0,0,0,0c0,0,0,0,0,0c0,0,0,0,0,0c0,0,0,0,0,0c0,0,0,0,0,0c0,0,0,0,0,0c0,0,0,0,0,0c0,0,0,0,0,0c0,0,0,0,0,0
c0,0,0,0,0,0c0,0,0,0,0,0c0,0,0,0,0,0c0,0,0,0,0,0c0,0,0,0,0,0c0,0,0,0,0,0c-0.4,0.5-0.9,1.1-1.3,1.6c0,0,0,0,0,0c0,0,0,0,0,0
c0,0,0,0,0,0c0,0,0,0,0,0c0,0,0,0,0,0c0,0,0,0,0,0c0,0,0,0,0,0c0,0,0,0,0,0c0,0,0,0,0,0c0,0,0,0,0,0c0,0,0,0,0,0c0,0,0,0,0,0
c0,0,0,0,0,0c0,0,0,0,0,0c0,0,0,0,0,0c0,0,0,0,0,0c0,0,0,0,0,0c0,0,0,0,0,0c0,0,0,0,0,0c0,0,0,0,0,0c0,0,0,0,0,0c0,0,0,0,0,0
c0,0,0,0,0,0c0,0,0,0,0,0c0,0,0,0,0,0l0,0c0,0,0,0,0,0l0,0c0,0,0,0,0,0l0,0c0,0,0,0,0,0c-1.2,1.4-1,3.5,0.4,4.7
c0.6,0.5,1.4,0.8,2.1,0.8c0.9,0,1.9-0.4,2.5-1.2c1.1-1.3,2.3-2.7,3.3-4.1c1.1-1.5,0.8-3.5-0.6-4.7
C246.5,268,245.8,267.8,245.1,267.8L245.1,267.8z
M253.5,254.9c-1.2,0-2.3,0.6-2.9,1.7c-0.1,0.1-0.1,0.2-0.2,0.3l0,0c0,0,0,0,0,0
l0,0c0,0,0,0,0,0l0,0c0,0,0,0,0,0l0,0c0,0,0,0,0,0l0,0c0,0,0,0,0,0l0,0c0,0,0,0,0,0l0,0c0,0,0,0,0,0l0,0c0,0,0,0,0,0l0,0
c0,0,0,0,0,0l0,0c0,0,0,0,0,0l0,0c0,0,0,0,0,0l0,0c0,0,0,0,0,0l0,0c0,0,0,0,0,0l0,0c0,0,0,0,0,0l0,0c0,0,0,0,0,0l0,0c0,0,0,0,0,0
l0,0c0,0,0,0,0,0l0,0c0,0.1-0.1,0.1-0.1,0.2c0,0,0,0,0,0c0,0,0,0,0,0c0,0,0,0,0,0c0,0,0,0,0,0c0,0,0,0,0,0c0,0,0,0,0,0
c0,0,0,0,0,0c0,0,0,0,0,0c0,0,0,0,0,0c0,0,0,0,0,0c0,0,0,0,0,0c0,0,0,0,0,0c0,0,0,0,0,0c0,0,0,0,0,0c0,0,0,0,0,0c0,0,0,0,0,0
c0,0,0,0,0,0c0,0,0,0,0,0c0,0,0,0,0,0c0,0,0,0,0,0c0,0,0,0,0,0c0,0,0,0,0,0c0,0,0,0,0,0c0,0,0,0,0,0c0,0,0,0,0,0c0,0,0,0,0,0
c0,0,0,0,0,0c0,0,0,0,0,0c0,0,0,0,0,0c0,0,0,0,0,0c0,0,0,0,0,0c0,0,0,0,0,0c0,0,0,0,0,0c0,0,0,0,0,0c0,0,0,0,0,0c0,0,0,0,0,0
c0,0,0,0,0,0c0,0,0,0,0,0c0,0,0,0,0,0c0,0,0,0,0,0c0,0,0,0,0,0c0,0,0,0,0,0c0,0,0,0,0,0c0,0,0,0,0,0c0,0,0,0,0,0c0,0,0,0,0,0
c0,0,0,0,0,0c0,0,0,0,0,0c0,0,0,0,0,0c0,0,0,0,0,0c0,0,0,0,0,0c0,0,0,0,0,0c0,0,0,0,0,0c0,0,0,0,0,0c0,0,0,0,0,0c0,0,0,0,0,0
c0,0,0,0,0,0c0,0,0,0,0,0c0,0,0,0,0,0c0,0,0,0,0,0c0,0,0,0,0,0c0,0,0,0,0,0c0,0,0,0,0,0c0,0,0,0,0,0c0,0,0,0,0,0c0,0,0,0,0,0
c0,0,0,0,0,0c0,0,0,0,0,0c0,0,0,0,0,0c0,0,0,0,0,0c-0.1,0.1-0.1,0.2-0.2,0.3c0,0,0,0,0,0c0,0,0,0,0,0c0,0,0,0,0,0c0,0,0,0,0,0
c0,0,0,0,0,0c0,0,0,0,0,0c0,0,0,0,0,0c0,0,0,0,0,0c0,0,0,0,0,0c0,0,0,0,0,0c0,0,0,0,0,0c0,0,0,0,0,0c0,0,0,0,0,0c0,0,0,0,0,0
c0,0,0,0,0,0c0,0,0,0,0,0c0,0,0,0,0,0c0,0,0,0,0,0c0,0,0,0,0,0c0,0,0,0,0,0c0,0,0,0,0,0c0,0,0,0,0,0c0,0,0,0,0,0c0,0,0,0,0,0
c0,0,0,0,0,0c0,0,0,0,0,0c0,0,0,0,0,0c0,0,0,0,0,0c0,0,0,0,0,0c0,0,0,0,0,0c0,0,0,0,0,0l0,0c0,0,0,0,0,0c0,0,0,0,0,0c0,0,0,0,0,0
l0,0c0,0,0,0,0,0l0,0c0,0,0,0,0,0l0,0c0,0,0,0,0,0l0,0c-0.2,0.4-0.5,0.7-0.7,1.1c-1,1.6-0.5,3.6,1.1,4.6c0.5,0.3,1.2,0.5,1.7,0.5
c1.1,0,2.2-0.6,2.8-1.6c0.9-1.5,1.8-3,2.7-4.6c0.9-1.6,0.3-3.6-1.3-4.5C254.6,255,254.1,254.9,253.5,254.9L253.5,254.9z
M260,240.9c-1.3,0-2.6,0.8-3.1,2.2c-0.6,1.6-1.2,3.1-1.9,4.6c-0.7,1.7,0.1,3.6,1.7,4.4c0.4,0.2,0.9,0.3,1.3,0.3
c1.3,0,2.5-0.8,3-2c0.7-1.6,1.4-3.3,2-4.9c0.6-1.7-0.2-3.6-1.9-4.3C260.7,241,260.4,240.9,260,240.9L260,240.9z
M264.3,226.1
c-1.5,0-2.9,1.1-3.2,2.6c-0.1,0.4-0.2,0.7-0.2,1.1l0,0c0,0,0,0,0,0c0,0,0,0,0,0c0,0,0,0,0,0c0,0,0,0,0,0c0,0,0,0,0,0c0,0,0,0,0,0
c0,0,0,0,0,0c0,0,0,0,0,0c0,0,0,0,0,0c0,0,0,0,0,0c0,0,0,0,0,0c0,0,0,0,0,0c0,0,0,0,0,0c0,0,0,0,0,0c0,0,0,0,0,0c0,0,0,0,0,0
c0,0,0,0,0,0c0,0,0,0,0,0c0,0,0,0,0,0c0,0,0,0,0,0c0,0,0,0,0,0c0,0,0,0,0,0c0,0,0,0,0,0c0,0,0,0,0,0c0,0,0,0,0,0c0,0,0,0,0,0
c0,0,0,0,0,0c0,0,0,0,0,0c0,0,0,0,0,0c0,0,0,0,0,0l0,0c0,0,0,0,0,0l0,0c0,0,0,0,0,0l0,0c0,0,0,0,0,0l0,0c0,0,0,0,0,0l0,0
c0,0,0,0,0,0l0,0c0,0,0,0,0,0l0,0c-0.2,0.8-0.4,1.5-0.6,2.3l0,0c0,0,0,0.1,0,0.1l0,0c0,0,0,0,0,0l0,0c0,0,0,0,0,0l0,0c0,0,0,0,0,0
l0,0c0,0,0,0,0,0l0,0c0,0,0,0,0,0v0c0,0,0,0,0,0v0c0,0,0,0,0,0.1l0,0c0,0,0,0,0,0l0,0c0,0,0,0,0,0l0,0c0,0,0,0,0,0l0,0
c0,0,0,0,0,0l0,0c0,0,0,0,0,0l0,0c0,0,0,0,0,0l0,0c0,0,0,0,0,0c-0.5,1.8,0.6,3.6,2.4,4.1c0.3,0.1,0.6,0.1,0.8,0.1
c1.5,0,2.8-1,3.2-2.5c0.4-1.7,0.9-3.4,1.2-5.2c0.4-1.8-0.8-3.6-2.6-3.9C264.7,226.1,264.5,226.1,264.3,226.1L264.3,226.1z
M266.3,210.8c-1.7,0-3.2,1.4-3.3,3.1c0,0.2,0,0.4,0,0.6c0,0,0,0,0,0c0,0,0,0,0,0c0,0,0,0,0,0c0,0,0,0,0,0c0,0,0,0,0,0
c0,0,0,0,0,0c0,0,0,0,0,0c0,0,0,0,0,0c0,0,0,0,0,0c0,0,0,0,0,0c0,0,0,0,0,0c0,0,0,0,0,0c-0.1,1.3-0.2,2.7-0.4,4v0c0,0,0,0.1,0,0.1
c-0.2,1.8,1.1,3.5,2.9,3.7c0.1,0,0.2,0,0.4,0c1.7,0,3.1-1.3,3.3-3c0.2-1.7,0.3-3.5,0.4-5.3c0.1-1.8-1.3-3.4-3.1-3.5
C266.4,210.8,266.4,210.8,266.3,210.8L266.3,210.8z
M266.1,195.4c-0.1,0-0.2,0-0.3,0c-1.8,0.2-3.2,1.8-3,3.6
c0.1,1.6,0.2,3.2,0.3,4.8l0,0c0,0,0,0,0,0c0,0,0,0,0,0c0,0,0,0,0,0c0,0,0,0,0,0c0,0,0,0,0,0c0,0,0,0,0,0c0,0,0,0,0,0c0,0,0,0,0,0
c0,0,0,0,0,0c0,0,0,0,0,0c0.1,1.8,1.5,3.2,3.3,3.2c0,0,0.1,0,0.1,0c1.8-0.1,3.3-1.6,3.2-3.4c-0.1-1.8-0.2-3.5-0.3-5.3
C269.3,196.7,267.8,195.4,266.1,195.4L266.1,195.4z
M263.6,180.2c-0.3,0-0.5,0-0.8,0.1c-1.8,0.4-2.9,2.2-2.5,4
c0,0.1,0,0.2,0.1,0.3c0,0,0,0,0,0c0,0,0,0,0,0c0,0,0,0,0,0c0,0,0,0,0,0c0,0,0,0,0,0c0,0,0,0,0,0c0,0,0,0,0,0c0,0,0,0,0,0
c0,0,0,0,0,0c0,0,0,0,0,0c0,0,0,0,0,0c0,0,0,0,0,0c0,0,0,0,0,0l0,0c0,0,0,0,0,0l0,0c0.3,1.1,0.5,2.3,0.7,3.4c0,0,0,0,0,0
c0,0,0,0,0,0c0.1,0.3,0.1,0.6,0.2,0.8c0.3,1.6,1.7,2.7,3.3,2.7c0.2,0,0.4,0,0.6-0.1c1.8-0.3,3-2.1,2.6-3.9
c-0.3-1.7-0.7-3.5-1.1-5.2C266.5,181.2,265.1,180.2,263.6,180.2L263.6,180.2z
M258.9,165.5c-0.4,0-0.8,0.1-1.2,0.2
c-1.7,0.7-2.5,2.6-1.8,4.3c0.2,0.5,0.4,0.9,0.5,1.4l0,0c0,0,0,0.1,0,0.1l0,0c0,0,0,0,0,0l0,0c0,0,0,0,0,0l0,0c0,0,0,0,0,0l0,0
c0,0,0,0,0,0l0,0c0,0,0,0,0,0l0,0c0,0,0,0,0,0l0,0c0,0,0,0,0,0l0,0c0,0,0,0,0,0l0,0c0,0,0,0,0,0l0,0c0,0,0,0,0,0l0,0c0,0,0,0,0,0
l0,0c0,0,0,0,0,0l0,0c0,0,0,0,0,0l0,0c0,0,0,0,0,0l0,0c0,0,0,0,0,0l0,0c0,0,0,0,0,0l0,0c0,0,0,0,0,0l0,0c0.2,0.5,0.4,1.1,0.6,1.7
l0,0c0,0,0,0,0,0c0,0,0,0,0,0c0,0,0,0,0,0c0,0,0,0,0,0c0,0,0,0,0,0c0,0,0,0,0,0c0,0,0,0,0,0c0.1,0.3,0.2,0.5,0.3,0.8
c0.5,1.4,1.8,2.2,3.1,2.2c0.4,0,0.7-0.1,1.1-0.2c1.7-0.6,2.6-2.5,2-4.2c-0.6-1.7-1.2-3.3-1.9-5
C261.5,166.3,260.2,165.5,258.9,165.5L258.9,165.5z
M252.1,151.7c-0.6,0-1.2,0.1-1.7,0.5c-1.6,0.9-2.1,3-1.2,4.5
c0.3,0.6,0.7,1.1,1,1.7c0,0,0,0,0,0c0,0,0,0,0,0c0,0,0,0,0,0c0,0,0,0,0,0c0,0,0,0,0,0c0,0,0,0,0,0c0,0,0,0,0,0c0,0,0,0,0,0
c0,0,0,0,0,0c0,0,0,0,0,0c0,0,0,0,0,0c0,0,0,0,0,0c0,0,0,0,0,0c0,0,0,0,0,0c0,0,0,0,0,0c0,0,0,0,0,0c0,0,0,0,0,0c0,0,0,0,0,0
c0,0,0,0,0,0l0,0c0,0,0,0,0,0l0,0c0,0,0,0,0,0l0,0c0,0,0,0,0,0l0,0c0,0,0,0,0,0l0,0c0,0,0,0,0,0l0,0c0,0,0,0,0,0l0,0c0,0,0,0,0,0
l0,0c0,0,0,0,0,0l0,0c0,0,0,0,0,0l0,0c0,0,0,0,0,0l0,0c0,0,0,0,0,0l0,0c0,0,0,0,0,0l0,0c0,0,0,0,0,0l0,0c0,0,0,0,0,0l0,0
c0,0,0,0,0,0l0,0c0,0,0,0,0,0l0,0c0,0,0,0,0,0l0,0c0,0,0,0,0,0l0,0c0,0,0,0,0,0l0,0c0,0,0,0,0,0l0,0c0,0,0,0,0,0c0,0,0,0,0,0
c0,0,0,0,0,0c0,0,0,0,0,0c0,0,0,0,0,0c0,0,0,0,0,0c0,0,0,0,0,0c0,0,0,0,0,0c0,0,0,0,0,0c0,0,0,0,0,0c0,0,0,0,0,0
c0.3,0.5,0.5,1,0.8,1.5c0.6,1.1,1.7,1.8,2.9,1.8c0.5,0,1.1-0.1,1.5-0.4c1.6-0.9,2.2-2.9,1.4-4.5c-0.8-1.6-1.7-3.1-2.6-4.6
C254.3,152.3,253.2,151.7,252.1,151.7L252.1,151.7z
M243.2,139.1c-0.7,0-1.5,0.2-2.1,0.7c-1.4,1.2-1.6,3.2-0.5,4.7
c0.2,0.2,0.3,0.4,0.5,0.6l0,0c0,0,0,0,0,0c0,0,0,0,0,0c0,0,0,0,0,0c0,0,0,0,0,0c0,0,0,0,0,0c0,0,0,0,0,0c0,0,0,0,0,0c0,0,0,0,0,0
c0,0,0,0,0,0c0,0,0,0,0,0c0,0,0,0,0,0c0,0,0,0,0,0c0,0,0,0,0,0c0.4,0.5,0.8,1,1.2,1.5c0,0,0,0,0,0c0,0,0,0,0,0c0,0,0,0,0,0
c0,0,0,0,0,0c0,0,0,0,0,0c0,0,0,0,0,0c0,0,0,0,0,0c0,0,0,0,0,0c0,0,0,0,0,0c0,0,0,0,0,0c0,0,0,0,0,0c0,0,0,0,0,0c0,0,0,0,0,0
c0,0,0,0,0,0c0,0,0,0,0,0c0,0,0,0,0,0c0,0,0,0,0,0c0,0,0,0,0,0c0,0,0,0,0,0c0,0,0,0,0,0c0,0,0,0,0,0c0,0,0,0,0,0c0,0,0,0,0,0
c0,0,0,0,0,0c0,0,0,0,0,0c0,0,0,0,0,0c0,0,0,0,0,0c0,0,0,0,0,0c0,0,0,0,0,0l0,0c0.3,0.4,0.6,0.8,0.9,1.2c0.7,0.9,1.7,1.4,2.7,1.4
c0.7,0,1.4-0.2,2-0.6c1.5-1.1,1.8-3.2,0.7-4.6c-1-1.4-2.1-2.8-3.2-4.2C245.2,139.5,244.2,139.1,243.2,139.1L243.2,139.1z
M232.7,127.9c-0.9,0-1.8,0.4-2.5,1.1c-1.2,1.4-1.1,3.5,0.2,4.7c0.3,0.3,0.7,0.6,1,0.9l0,0c0,0,0,0,0,0c0,0,0,0,0,0c0,0,0,0,0,0
c0,0,0,0,0,0c0,0,0,0,0,0c0,0,0,0,0,0c0,0,0,0,0,0c0,0,0,0,0,0c0,0,0,0,0,0c0,0,0,0,0,0c0,0,0,0,0,0c0,0,0,0,0,0c0,0,0,0,0,0
c0,0,0,0,0,0c0,0,0,0,0,0c0,0,0,0,0,0c0,0,0,0,0,0c0,0,0,0,0,0c0,0,0,0,0,0c0,0,0,0,0,0c0,0,0,0,0,0c0,0,0,0,0,0c0,0,0,0,0,0
c0,0,0,0,0,0c0,0,0,0,0,0c0,0,0,0,0,0c0,0,0,0,0,0c0,0,0,0,0,0c0,0,0,0,0,0c0,0,0,0,0,0c0,0,0,0,0,0c0,0,0,0,0,0c0,0,0,0,0,0
c0,0,0,0,0,0c0,0,0,0,0,0c0.7,0.7,1.4,1.4,2.1,2.1c0.6,0.7,1.5,1,2.4,1c0.8,0,1.7-0.3,2.3-1c1.3-1.3,1.3-3.4,0-4.7
c-1.2-1.2-2.5-2.5-3.8-3.7C234.3,128.2,233.5,127.9,232.7,127.9L232.7,127.9z
M220.6,118.4c-1.1,0-2.1,0.5-2.8,1.5
c-1,1.5-0.6,3.6,0.9,4.6c0.3,0.2,0.6,0.4,1,0.7c0,0,0,0,0,0c0,0,0,0,0,0l0,0c0,0,0,0,0,0c0,0,0,0,0,0c0,0,0,0,0,0c0,0,0,0,0,0
c0,0,0,0,0,0c0,0,0,0,0,0c0,0,0,0,0,0c0,0,0,0,0,0c0,0,0,0,0,0c0,0,0,0,0,0c0,0,0,0,0,0c0,0,0,0,0,0c0,0,0,0,0,0c0,0,0,0,0,0
c0,0,0,0,0,0c0,0,0,0,0,0c0,0,0,0,0,0c0,0,0,0,0,0c0,0,0,0,0,0c0,0,0,0,0,0c0,0,0,0,0,0c0,0,0,0,0,0c0,0,0,0,0,0c0,0,0,0,0,0
c0,0,0,0,0,0c0,0,0,0,0,0c0,0,0,0,0,0c0,0,0,0,0,0c0,0,0,0,0,0c0,0,0,0,0,0c0,0,0,0,0,0c0,0,0,0,0,0c0,0,0,0,0,0c0,0,0,0,0,0
c0,0,0,0,0,0c0,0,0,0,0,0c0,0,0,0,0,0c0,0,0,0,0,0c0,0,0,0,0.1,0c0,0,0,0,0,0c0,0,0,0,0,0c0,0,0,0,0,0c0,0,0,0,0,0c0,0,0,0,0,0
c0,0,0,0,0,0c0,0,0,0,0,0c0,0,0,0,0,0c0,0,0,0,0,0c0,0,0,0,0,0c0,0,0,0,0,0c0,0,0,0,0,0c0,0,0,0,0,0c0,0,0,0,0,0c0,0,0,0,0,0
c0,0,0,0,0,0c0,0,0,0,0,0c0,0,0,0,0,0c0,0,0,0,0,0c0,0,0,0,0,0c0,0,0,0,0,0c0,0,0,0,0,0c0,0,0,0,0,0c0,0,0,0,0,0c0,0,0,0,0,0
c0,0,0,0,0,0c0,0,0,0,0,0c0,0,0,0,0,0c0,0,0,0,0,0c0,0,0,0,0,0c0,0,0,0,0,0c0,0,0,0,0,0c0,0,0,0,0,0c0,0,0,0,0,0c0,0,0,0,0,0
c0,0,0,0,0,0c0,0,0,0,0,0c0,0,0,0,0,0c0,0,0,0,0,0c0,0,0,0,0,0c0,0,0,0,0,0c0,0,0,0,0,0c0,0,0,0,0,0c0,0,0,0,0,0c0,0,0,0,0,0
c0,0,0,0,0,0c0,0,0,0,0,0c0,0,0,0,0,0c0,0,0,0,0,0c0,0,0,0,0,0c0,0,0,0,0,0c0,0,0,0,0,0c0,0,0,0,0,0c0,0,0,0,0,0c0,0,0,0,0,0
c0,0,0,0,0,0c0,0,0,0,0,0c0,0,0,0,0,0c0,0,0,0,0,0c0,0,0,0,0,0c0,0,0,0,0,0c0,0,0,0,0,0c0,0,0,0,0,0c0,0,0,0,0,0
c0,0,0.1,0.1,0.1,0.1c0,0,0,0,0,0c0,0,0,0,0,0c0,0,0,0,0,0c0,0,0,0,0,0c0,0,0,0,0,0c0,0,0,0,0,0c0,0,0,0,0,0c0,0,0,0,0,0
c0,0,0,0,0,0c0,0,0,0,0,0c0,0,0,0,0,0c0,0,0,0,0,0c0,0,0,0,0,0c0,0,0,0,0,0c0,0,0,0,0,0c0,0,0,0,0,0c0,0,0,0,0,0c0,0,0,0,0,0
c0,0,0,0,0,0c0,0,0,0,0,0c0,0,0,0,0,0c0,0,0,0,0,0c0,0,0,0,0,0c0,0,0,0,0,0s0,0,0,0c0,0,0,0,0,0c0,0,0,0,0,0c0,0,0,0,0,0
c0,0,0,0,0,0c0,0,0,0,0,0c0,0,0,0,0,0c0,0,0,0,0,0c0,0,0,0,0,0c0,0,0,0,0,0c0,0,0,0,0,0c0,0,0,0,0,0c0,0,0,0,0,0c0,0,0,0,0,0
c0,0,0,0,0,0c0,0,0,0,0,0c0,0,0,0,0,0c0,0,0,0,0,0c0,0,0,0,0,0c0,0,0,0,0,0c0,0,0,0,0,0c0,0,0,0,0,0c0,0,0,0,0,0c0,0,0,0,0,0
c0,0,0,0,0,0c0,0,0,0,0,0c0,0,0,0,0,0c0,0,0,0,0,0c0,0,0,0,0,0c0,0,0,0,0,0c0,0,0,0,0,0c0,0,0,0,0,0c0,0,0,0,0,0c0,0,0,0,0,0l0,0
c0.1,0.1,0.3,0.2,0.4,0.3c0.6,0.4,1.3,0.7,2,0.7c1,0,2-0.5,2.7-1.3c1.1-1.5,0.8-3.5-0.7-4.6c-1.4-1.1-2.9-2.1-4.3-3.1
C221.9,118.6,221.2,118.4,220.6,118.4L220.6,118.4z
M207.2,110.7c-1.2,0-2.4,0.7-3,1.9c-0.8,1.7-0.1,3.6,1.6,4.4
c1.5,0.7,3,1.5,4.5,2.3c0.5,0.3,1,0.4,1.6,0.4c1.2,0,2.3-0.6,2.9-1.7c0.9-1.6,0.3-3.6-1.4-4.5c-1.6-0.8-3.1-1.6-4.7-2.4
C208.1,110.8,207.7,110.7,207.2,110.7L207.2,110.7z
M192.8,105.2c-1.4,0-2.7,0.9-3.2,2.4c-0.5,1.8,0.5,3.6,2.2,4.1
c1.2,0.4,2.4,0.8,3.6,1.2c0,0,0,0,0,0c0,0,0,0,0,0c0,0,0,0,0,0c0,0,0,0,0,0c0.3,0.1,0.7,0.2,1,0.4c0.4,0.1,0.7,0.2,1.1,0.2
c1.4,0,2.6-0.8,3.1-2.2c0.6-1.7-0.3-3.6-2-4.2c-1.7-0.6-3.4-1.2-5-1.7C193.4,105.2,193.1,105.2,192.8,105.2L192.8,105.2z
M177.8,101.8c-1.6,0-3,1.2-3.3,2.8c-0.3,1.8,1,3.5,2.8,3.8c1.6,0.2,3.3,0.5,4.9,0.8c0.2,0,0.4,0.1,0.6,0.1c1.6,0,2.9-1.1,3.3-2.7
c0.4-1.8-0.8-3.5-2.6-3.9c-1.7-0.3-3.5-0.6-5.2-0.9C178.1,101.8,177.9,101.8,177.8,101.8L177.8,101.8z
M162.6,100.7
c-1.8,0-3.5,0-5.3,0.1c-1.8,0.1-3.2,1.6-3.2,3.5c0.1,1.8,1.6,3.2,3.3,3.2c0.1,0,0.1,0,0.2,0c0.4,0,0.8,0,1.2-0.1l0,0c0,0,0,0,0,0
l0,0c0,0,0,0,0,0c0,0,0,0,0,0c0,0,0,0,0,0c0,0,0,0,0,0c0,0,0,0,0,0c0,0,0,0,0,0c0,0,0,0,0,0c0,0,0,0,0,0c0,0,0,0,0,0c0,0,0,0,0,0
c0,0,0,0,0,0c0,0,0,0,0,0c0,0,0,0,0,0c0,0,0,0,0,0c0,0,0,0,0,0c0,0,0,0,0,0c0,0,0,0,0,0c0,0,0,0,0,0c0,0,0,0,0,0c0,0,0,0,0,0
c0,0,0,0,0,0c0,0,0,0,0,0c0,0,0,0,0,0c0,0,0,0,0,0s0,0,0,0c0,0,0,0,0,0c0,0,0,0,0,0c0,0,0,0,0,0c0,0,0,0,0,0s0,0,0,0c0,0,0,0,0,0
c0,0,0.1,0,0.1,0c0,0,0,0,0,0c0,0,0,0,0.1,0c0,0,0,0,0,0c0,0,0,0,0,0c0,0,0,0,0,0c0,0,0,0,0,0c0,0,0,0,0,0c0,0,0,0,0,0
c0,0,0,0,0,0c0,0,0,0,0,0c0,0,0,0,0,0c0,0,0,0,0,0c0,0,0,0,0,0c0,0,0,0,0,0c0,0,0,0,0,0c0,0,0,0,0,0c0,0,0,0,0,0c0,0,0,0,0,0
c0,0,0,0,0,0c0,0,0,0,0,0c0,0,0,0,0,0c0,0,0,0,0,0c0,0,0,0,0,0c0,0,0,0,0,0c0,0,0,0,0,0c0,0,0,0,0,0c0,0,0,0,0,0c0,0,0,0,0,0
c0,0,0,0,0,0c0,0,0,0,0,0c0,0,0,0,0,0c0,0,0,0,0,0c0,0,0,0,0,0c0,0,0,0,0,0c0,0,0,0,0,0c0,0,0,0,0,0c0,0,0,0,0,0c0,0,0,0,0,0
c0,0,0,0,0,0c0,0,0,0,0,0c0,0,0,0,0,0c0.1,0,0.2,0,0.3,0c0,0,0,0,0,0c0,0,0,0,0,0c0,0,0,0,0,0c0,0,0,0,0,0c0,0,0,0,0,0
c0,0,0,0,0,0c0,0,0,0,0,0c0,0,0,0,0,0c0,0,0,0,0,0c0,0,0,0,0,0c0,0,0,0,0,0c0,0,0,0,0,0c0,0,0,0,0,0c0,0,0,0,0,0c0,0,0,0,0,0
c0,0,0,0,0,0c0,0,0,0,0,0c0,0,0,0,0,0c0,0,0,0,0,0c0,0,0,0,0,0c0,0,0,0,0,0c0,0,0,0,0,0c0,0,0,0,0,0c0,0,0,0,0,0c0,0,0,0,0,0
c0,0,0,0,0,0c0,0,0,0,0,0c0,0,0,0,0,0c0,0,0,0,0,0c0,0,0,0,0,0c0,0,0,0,0,0c0,0,0,0,0,0c0,0,0,0,0,0c0,0,0,0,0,0c0,0,0,0,0,0
c0,0,0,0,0,0c0,0,0,0,0,0c0,0,0,0,0,0c0,0,0,0,0,0c0,0,0,0,0,0c0,0,0,0,0,0c0,0,0.1,0,0.1,0c0,0,0,0,0,0c0,0,0,0,0,0c0,0,0,0,0,0
c0,0,0,0,0,0c0,0,0,0,0,0c0,0,0,0,0,0c0,0,0,0,0,0c0,0,0,0,0,0c0,0,0,0,0,0c0,0,0,0,0,0c0,0,0,0,0,0c0,0,0,0,0,0c0,0,0,0,0,0
c0,0,0,0,0,0c0,0,0,0,0,0c0,0,0,0,0,0c0,0,0,0,0,0c0,0,0,0,0,0c0,0,0,0,0,0c0,0,0,0,0,0c0,0,0,0,0,0c0,0,0,0,0,0c0,0,0,0,0,0
c0,0,0,0,0,0c0,0,0,0,0,0c0,0,0,0,0,0c0,0,0,0,0,0c0,0,0,0,0,0c0,0,0,0,0,0c0,0,0,0,0,0c0,0,0,0,0,0c0,0,0,0,0,0c0,0,0,0,0,0
c0,0,0,0,0,0c0,0,0,0,0,0c0,0,0,0,0,0c0,0,0,0,0,0c0,0,0,0,0,0c0,0,0,0,0,0c0,0,0,0,0,0c0,0,0,0,0,0c0,0,0,0,0,0c0,0,0,0,0,0
c0,0,0,0,0,0c0,0,0,0,0,0c0,0,0,0,0,0c0,0,0,0,0,0l0,0c0,0,0,0,0,0c0,0,0,0,0,0c0,0,0,0,0,0c0,0,0,0,0,0c0,0,0,0,0,0c0,0,0,0,0,0
c0,0,0,0,0,0c0,0,0,0,0,0c0,0,0,0,0,0c0,0,0,0,0,0c0,0,0,0,0,0c0,0,0,0,0,0c0,0,0,0,0,0c0,0,0,0,0,0c0,0,0,0,0,0c0,0,0,0,0,0
c0,0,0,0,0,0c0,0,0,0,0,0c0,0,0,0,0,0c0,0,0,0,0,0c0,0,0.1,0,0.1,0c0,0,0,0,0,0c0,0,0,0,0,0c0,0,0,0,0,0c0,0,0,0,0,0c0,0,0,0,0,0
c0,0,0,0,0,0c0,0,0,0,0,0c0,0,0,0,0,0c0,0,0,0,0,0c0,0,0,0,0,0c0,0,0,0,0,0c0,0,0,0,0,0c0,0,0,0,0,0c0,0,0,0,0,0c0,0,0,0,0,0
c0,0,0,0,0,0c0,0,0,0,0,0c0,0,0,0,0,0c0,0,0,0,0,0c0,0,0.1,0,0.1,0c0,0,0,0,0,0c0,0,0,0,0,0c0,0,0,0,0,0c0,0,0,0,0,0c0,0,0,0,0,0
c0,0,0,0,0,0c0,0,0,0,0,0c0,0,0,0,0,0c0,0,0,0,0,0c0,0,0,0,0,0c0,0,0,0,0,0c0,0,0,0,0,0c0,0,0,0,0,0c0,0,0,0,0,0c0,0,0,0,0,0
c0,0,0,0,0,0c0,0,0,0,0,0c0,0,0,0,0,0c0,0,0,0,0,0c0,0,0,0,0,0c0,0,0,0,0,0c0,0,0,0,0,0c0,0,0,0,0,0c0,0,0,0,0,0c0,0,0,0,0,0
c0,0,0,0,0,0c0,0,0,0,0,0c0,0,0,0,0,0c0,0,0,0,0,0c0,0,0,0,0,0c0,0,0,0,0,0c0,0,0,0,0,0c0,0,0,0,0,0c0,0,0,0,0,0c0,0,0,0,0,0
c0,0,0,0,0,0c0,0,0,0,0,0c0,0,0,0,0,0c0,0,0,0,0,0c0,0,0,0,0,0c0,0,0,0,0,0c0,0,0,0,0,0c0,0,0,0,0,0c0,0,0,0,0,0c0,0,0,0,0,0
c0,0,0,0,0,0c0,0,0,0,0,0c0,0,0,0,0,0c0,0,0,0,0,0c0,0,0,0,0,0c0,0,0,0,0,0c0,0,0,0,0,0c0,0,0,0,0,0c0,0,0,0,0,0c0,0,0,0,0,0
c0,0,0,0,0,0c0,0,0,0,0,0c0,0,0,0,0,0c0,0,0,0,0,0c0,0,0,0,0,0c0,0,0,0,0,0c0,0,0,0,0,0c0,0,0,0,0,0c0,0,0,0,0,0c0,0,0,0,0,0
c0,0,0,0,0,0c0,0,0,0,0,0c0,0,0,0,0,0c0,0,0,0,0,0c0,0,0,0,0,0c0,0,0,0,0,0c0,0,0,0,0,0c0,0,0,0,0,0c0,0,0,0,0,0c0,0,0,0,0,0
c0,0,0,0,0,0c0,0,0,0,0,0c0,0,0,0,0,0c0,0,0,0,0,0c0,0,0,0,0,0c0,0,0,0,0,0l0,0c0.1,0,0.1,0,0.2,0l0,0c0,0,0,0,0,0c0,0,0,0,0,0
c0,0,0,0,0,0c0,0,0,0,0,0c0,0,0,0,0,0h0c0.6,0,1.2,0,1.9,0.1c0.1,0,0.1,0,0.1,0c1.8,0,3.2-1.4,3.3-3.2c0.1-1.8-1.3-3.4-3.2-3.5
C166,100.8,164.3,100.7,162.6,100.7L162.6,100.7z" />
</svg>