<svg xmlns="http://www.w3.org/2000/svg"
    height="25"
    width="25"
    viewBox="0 0 133 133">

  <path
      fill="none"
      d="M-648-738.7h81.1v81.1H-648V-738.7z"/>
  <path
      fill="#E1E1E1"
      d="M 66.5 0 C 103.226935864 0 133 29.7730641363 133 66.5 C 133 103.226935864 103.226935864 133 66.5 133 C 29.7730641363 133 0 103.226935864 0 66.5 C 0 29.7730641363 29.7730641363 0 66.5 0 Z"/>
  <path
      fill="none"
      d="M130.3,102.8c0,2.6-2.2,4.8-4.8,4.8H7.5c-2.6,0-4.8-2.2-4.8-4.8V30.2c0-2.6,2.2-4.8,4.8-4.8h118
c2.6,0,4.8,2.2,4.8,4.8V102.8z"
      stroke="#05294B"
      stroke-miterlimit="10"
      stroke-width="3.3727"/>
  <path
      fill="none"
      d="M20.8,71.5c0-7.1,5.7-12.8,12.8-12.8s12.8,5.7,12.8,12.8"
      stroke ="#05294B"
      stroke-miterlimit="10"
      stroke-width="2.9011"/>
  <path
      fill="none"
      d="M 33.7 39.3 C 37.6764501988 39.3 40.9 42.5235498012 40.9 46.5 C 40.9 50.4764501988 37.6764501988 53.7 33.7 53.7 C 29.7235498012 53.7 26.5 50.4764501988 26.5 46.5 C 26.5 42.5235498012 29.7235498012 39.3 33.7 39.3 Z"
      stroke ="#05294B"
      stroke-miterlimit="10"
      stroke-width="2.9011"/>
  <path
      fill="none"
      d="M 17.6 94 L 117.4 94"
      stroke ="#05294B"
      stroke-miterlimit="10"
      stroke-width="3.3727"/>
  <path
      fill="none"
      d="M 17.6 83.2 L 117.4 83.2"
      stroke ="#05294B"
      stroke-miterlimit="10"
      stroke-width="3.3727"/>
</svg>