<svg xmlns="http://www.w3.org/2000/svg"
    height="29"
    width="25"
    viewBox="0 0 133 139">
  <path
      fill="none"
      d="M-648-1036.7h81.1v81.1H-648V-1036.7z"/>
  <path
      fill="#E1E1E1"
      d="M 66.5 3 C 103.226935864 3 133 32.7730641363 133 69.5 C 133 106.226935864 103.226935864 136 66.5 136 C 29.7730641363 136 0 106.226935864 0 69.5 C 0 32.7730641363 29.7730641363 3 66.5 3 Z"/>
  <path
      fill="none"
d="M100.5,4.3H33.6h-1.8h-4c-4.2,0-5.1-0.6-5.1,1.5c0,2.1,0,128.9,0,128.9h9.1H36h64.5c5.4,0,9.8-4.4,9.8-9.8
V14.1C110.3,8.7,105.9,4.3,100.5,4.3z"
      stroke="#05294B"
      stroke-miterlimit="10"
      stroke-width="3.8333"/>
  <path
      fill="#05294B"
d="M63.2,51.3h2.3l8.4-14.1h6c1.7,0,5.7-1,5.7-2.3c0-1.3-4-2.3-5.7-2.3h-6l-8.4-14.1h-2.3l3,14.1L58,33.3
l-3.2-4.1h-2l1.3,5.7l-1.3,5.7h2l3.2-4.1l8.2,0.8L63.2,51.3z"/>
  <path
      fill="none"
      d="M 44.1 63 L 91.9 63"
      stroke="#05294B"
      stroke-miterlimit="10"
      stroke-width="3.8333"/>
  <path
      fill="none"
      d="M 53.7 73.7 L 80.2 73.7"
      stroke="#05294B"
      stroke-miterlimit="10"
      stroke-width="3.8333"/>
</svg>